<?xml version="1.0" encoding="UTF-8" standalone="no"?>
<!DOCTYPE svg PUBLIC "-//W3C//DTD SVG 1.1//EN"
 "http://www.w3.org/Graphics/SVG/1.1/DTD/svg11.dtd">
<!-- Generated by graphviz version 2.40.1 (20161225.0304)
 -->
<!-- Title: G Pages: 1 -->
<svg width="863pt" height="990pt"
 viewBox="0.00 0.00 862.98 990.00" xmlns="http://www.w3.org/2000/svg" xmlns:xlink="http://www.w3.org/1999/xlink">
<g id="graph0" class="graph" transform="scale(1 1) rotate(0) translate(4 986)">
<title>G</title>
<polygon fill="#ffffff" stroke="transparent" points="-4,4 -4,-986 858.9839,-986 858.9839,4 -4,4"/>
<g id="clust1" class="cluster">
<title>cluster_Global</title>
<path fill="none" stroke="#c0c0c0" d="M20,-152C20,-152 834.9839,-152 834.9839,-152 840.9839,-152 846.9839,-158 846.9839,-164 846.9839,-164 846.9839,-962 846.9839,-962 846.9839,-968 840.9839,-974 834.9839,-974 834.9839,-974 20,-974 20,-974 14,-974 8,-968 8,-962 8,-962 8,-164 8,-164 8,-158 14,-152 20,-152"/>
<text text-anchor="middle" x="427.4919" y="-961.2" font-family="Times,serif" font-size="11.00" fill="#c0c0c0">Global</text>
</g>
<g id="clust2" class="cluster">
<title>cluster_\LinkScanner</title>
<path fill="none" stroke="#c0c0c0" d="M281.9839,-160C281.9839,-160 826.9839,-160 826.9839,-160 832.9839,-160 838.9839,-166 838.9839,-172 838.9839,-172 838.9839,-694 838.9839,-694 838.9839,-700 832.9839,-706 826.9839,-706 826.9839,-706 281.9839,-706 281.9839,-706 275.9839,-706 269.9839,-700 269.9839,-694 269.9839,-694 269.9839,-172 269.9839,-172 269.9839,-166 275.9839,-160 281.9839,-160"/>
<text text-anchor="middle" x="554.4839" y="-693.2" font-family="Times,serif" font-size="11.00" fill="#c0c0c0">LinkScanner</text>
</g>
<g id="clust3" class="cluster">
<title>cluster_\LinkScanner\Event</title>
<path fill="none" stroke="#c0c0c0" d="M289.9839,-402C289.9839,-402 818.9839,-402 818.9839,-402 824.9839,-402 830.9839,-408 830.9839,-414 830.9839,-414 830.9839,-462 830.9839,-462 830.9839,-468 824.9839,-474 818.9839,-474 818.9839,-474 289.9839,-474 289.9839,-474 283.9839,-474 277.9839,-468 277.9839,-462 277.9839,-462 277.9839,-414 277.9839,-414 277.9839,-408 283.9839,-402 289.9839,-402"/>
<text text-anchor="middle" x="554.4839" y="-461.2" font-family="Times,serif" font-size="11.00" fill="#c0c0c0">Event</text>
</g>
<g id="clust4" class="cluster">
<title>cluster_\LinkScanner\TestSuite</title>
<path fill="none" stroke="#c0c0c0" d="M637.9839,-268C637.9839,-268 781.9839,-268 781.9839,-268 787.9839,-268 793.9839,-274 793.9839,-280 793.9839,-280 793.9839,-382 793.9839,-382 793.9839,-388 787.9839,-394 781.9839,-394 781.9839,-394 637.9839,-394 637.9839,-394 631.9839,-394 625.9839,-388 625.9839,-382 625.9839,-382 625.9839,-280 625.9839,-280 625.9839,-274 631.9839,-268 637.9839,-268"/>
<text text-anchor="middle" x="709.9839" y="-381.2" font-family="Times,serif" font-size="11.00" fill="#c0c0c0">TestSuite</text>
</g>
<g id="clust5" class="cluster">
<title>cluster_\LinkScanner\Utility</title>
<path fill="none" stroke="#c0c0c0" d="M668.4839,-482C668.4839,-482 751.4839,-482 751.4839,-482 757.4839,-482 763.4839,-488 763.4839,-494 763.4839,-494 763.4839,-542 763.4839,-542 763.4839,-548 757.4839,-554 751.4839,-554 751.4839,-554 668.4839,-554 668.4839,-554 662.4839,-554 656.4839,-548 656.4839,-542 656.4839,-542 656.4839,-494 656.4839,-494 656.4839,-488 662.4839,-482 668.4839,-482"/>
<text text-anchor="middle" x="709.9839" y="-541.2" font-family="Times,serif" font-size="11.00" fill="#c0c0c0">Utility</text>
</g>
<g id="clust6" class="cluster">
<title>cluster_\LinkScanner\Command</title>
<path fill="none" stroke="#c0c0c0" d="M644.9839,-562C644.9839,-562 774.9839,-562 774.9839,-562 780.9839,-562 786.9839,-568 786.9839,-574 786.9839,-574 786.9839,-622 786.9839,-622 786.9839,-628 780.9839,-634 774.9839,-634 774.9839,-634 644.9839,-634 644.9839,-634 638.9839,-634 632.9839,-628 632.9839,-622 632.9839,-622 632.9839,-574 632.9839,-574 632.9839,-568 638.9839,-562 644.9839,-562"/>
<text text-anchor="middle" x="709.9839" y="-621.2" font-family="Times,serif" font-size="11.00" fill="#c0c0c0">Command</text>
</g>
<g id="clust7" class="cluster">
<title>cluster_Global\Tools</title>
<path fill="none" stroke="#c0c0c0" d="M376.9867,-874C376.9867,-874 433.981,-874 433.981,-874 439.981,-874 445.981,-880 445.981,-886 445.981,-886 445.981,-934 445.981,-934 445.981,-940 439.981,-946 433.981,-946 433.981,-946 376.9867,-946 376.9867,-946 370.9867,-946 364.9867,-940 364.9867,-934 364.9867,-934 364.9867,-886 364.9867,-886 364.9867,-880 370.9867,-874 376.9867,-874"/>
<text text-anchor="middle" x="405.4839" y="-933.2" font-family="Times,serif" font-size="11.00" fill="#c0c0c0">Tools</text>
</g>
<g id="clust8" class="cluster">
<title>cluster_Global\MeTools</title>
<path fill="none" stroke="#c0c0c0" d="M353.3881,-758C353.3881,-758 457.5796,-758 457.5796,-758 463.5796,-758 469.5796,-764 469.5796,-770 469.5796,-770 469.5796,-854 469.5796,-854 469.5796,-860 463.5796,-866 457.5796,-866 457.5796,-866 353.3881,-866 353.3881,-866 347.3881,-866 341.3881,-860 341.3881,-854 341.3881,-854 341.3881,-770 341.3881,-770 341.3881,-764 347.3881,-758 353.3881,-758"/>
<text text-anchor="middle" x="405.4839" y="-853.2" font-family="Times,serif" font-size="11.00" fill="#c0c0c0">MeTools</text>
</g>
<g id="clust9" class="cluster">
<title>cluster_Global\MeTools\Console</title>
<path fill="none" stroke="#c0c0c0" d="M361.3881,-766C361.3881,-766 449.5796,-766 449.5796,-766 455.5796,-766 461.5796,-772 461.5796,-778 461.5796,-778 461.5796,-826 461.5796,-826 461.5796,-832 455.5796,-838 449.5796,-838 449.5796,-838 361.3881,-838 361.3881,-838 355.3881,-838 349.3881,-832 349.3881,-826 349.3881,-826 349.3881,-778 349.3881,-778 349.3881,-772 355.3881,-766 361.3881,-766"/>
<text text-anchor="middle" x="405.4839" y="-825.2" font-family="Times,serif" font-size="11.00" fill="#c0c0c0">Console</text>
</g>
<g id="clust10" class="cluster">
<title>cluster_Global\Cake</title>
<path fill="none" stroke="#c0c0c0" d="M28,-394C28,-394 217.9839,-394 217.9839,-394 223.9839,-394 229.9839,-400 229.9839,-406 229.9839,-406 229.9839,-490 229.9839,-490 229.9839,-496 223.9839,-502 217.9839,-502 217.9839,-502 28,-502 28,-502 22,-502 16,-496 16,-490 16,-490 16,-406 16,-406 16,-400 22,-394 28,-394"/>
<text text-anchor="middle" x="122.9919" y="-489.2" font-family="Times,serif" font-size="11.00" fill="#c0c0c0">Cake</text>
</g>
<g id="clust11" class="cluster">
<title>cluster_Global\Cake\Event</title>
<path fill="none" stroke="#c0c0c0" d="M36,-402C36,-402 209.9839,-402 209.9839,-402 215.9839,-402 221.9839,-408 221.9839,-414 221.9839,-414 221.9839,-462 221.9839,-462 221.9839,-468 215.9839,-474 209.9839,-474 209.9839,-474 36,-474 36,-474 30,-474 24,-468 24,-462 24,-462 24,-414 24,-414 24,-408 30,-402 36,-402"/>
<text text-anchor="middle" x="122.9919" y="-461.2" font-family="Times,serif" font-size="11.00" fill="#c0c0c0">Event</text>
</g>
<!-- \\LinkScanner\\Event\\LinkScannerCommandEventListener -->
<g id="node1" class="node">
<title>\\LinkScanner\\Event\\LinkScannerCommandEventListener</title>
<polygon fill="none" stroke="#000000" points="822.9839,-446 596.9839,-446 596.9839,-410 822.9839,-410 822.9839,-446"/>
<text text-anchor="middle" x="709.9839" y="-425.2" font-family="Courier,monospace" font-size="11.00" fill="#000000">LinkScannerCommandEventListener</text>
</g>
<!-- \\LinkScanner\\Event\\LinkScannerEventListenerInterface -->
<g id="node2" class="node">
<title>\\LinkScanner\\Event\\LinkScannerEventListenerInterface</title>
<polygon fill="none" stroke="#000000" points="524.9839,-446 285.9839,-446 285.9839,-410 524.9839,-410 524.9839,-446"/>
<text text-anchor="middle" x="405.4839" y="-425.2" font-family="Courier,monospace" font-size="11.00" fill="#000000">LinkScannerEventListenerInterface</text>
</g>
<!-- \\LinkScanner\\Event\\LinkScannerCommandEventListener&#45;&gt;\\LinkScanner\\Event\\LinkScannerEventListenerInterface -->
<g id="edge4" class="edge">
<title>\\LinkScanner\\Event\\LinkScannerCommandEventListener&#45;&gt;\\LinkScanner\\Event\\LinkScannerEventListenerInterface</title>
<path fill="none" stroke="#000000" stroke-dasharray="1,5" d="M596.5993,-428C576.6375,-428 555.7205,-428 535.3499,-428"/>
<polygon fill="none" stroke="#000000" points="535.0792,-424.5001 525.0792,-428 535.0792,-431.5001 535.0792,-424.5001"/>
</g>
<!-- EventListenerInterface -->
<g id="node12" class="node">
<title>EventListenerInterface</title>
<ellipse fill="none" stroke="#000000" cx="122.9919" cy="-428" rx="90.9839" ry="18"/>
<text text-anchor="middle" x="122.9919" y="-424.3" font-family="Times,serif" font-size="14.00" fill="#c0c0c0">EventListenerInterface</text>
</g>
<!-- \\LinkScanner\\Event\\LinkScannerEventListenerInterface&#45;&gt;EventListenerInterface -->
<g id="edge8" class="edge">
<title>\\LinkScanner\\Event\\LinkScannerEventListenerInterface&#45;&gt;EventListenerInterface</title>
<path fill="none" stroke="#000000" d="M285.6818,-428C265.321,-428 244.3515,-428 224.5191,-428"/>
<polygon fill="none" stroke="#000000" points="224.261,-424.5001 214.261,-428 224.2609,-431.5001 224.261,-424.5001"/>
</g>
<!-- \\LinkScanner\\TestSuite\\TestCase -->
<g id="node3" class="node">
<title>\\LinkScanner\\TestSuite\\TestCase</title>
<polygon fill="none" stroke="#000000" points="751.9839,-366 667.9839,-366 667.9839,-330 751.9839,-330 751.9839,-366"/>
<text text-anchor="start" x="675.9839" y="-351.2" font-family="Courier,monospace" font-size="11.00" fill="#000000">«abstract»</text>
<text text-anchor="start" x="682.4839" y="-339.2" font-family="Courier,monospace" font-size="11.00" fill="#000000">TestCase</text>
</g>
<!-- TestCase -->
<g id="node14" class="node">
<title>TestCase</title>
<ellipse fill="none" stroke="#000000" cx="405.4839" cy="-126" rx="42.7926" ry="18"/>
<text text-anchor="middle" x="405.4839" y="-122.3" font-family="Times,serif" font-size="14.00" fill="#000000">TestCase</text>
</g>
<!-- \\LinkScanner\\TestSuite\\TestCase&#45;&gt;TestCase -->
<g id="edge2" class="edge">
<title>\\LinkScanner\\TestSuite\\TestCase&#45;&gt;TestCase</title>
<path fill="none" stroke="#000000" d="M667.9333,-343.6399C645.7303,-339.973 618.6693,-333.2583 596.9839,-321 520.0496,-277.5108 453.6963,-194.0842 423.2508,-151.8528"/>
<polygon fill="none" stroke="#000000" points="425.9557,-149.617 417.3082,-143.4955 420.2509,-153.6735 425.9557,-149.617"/>
</g>
<!-- \\LinkScanner\\TestSuite\\IntegrationTestTrait -->
<g id="node4" class="node">
<title>\\LinkScanner\\TestSuite\\IntegrationTestTrait</title>
<polygon fill="none" stroke="#000000" points="785.9839,-312 633.9839,-312 633.9839,-276 785.9839,-276 785.9839,-312"/>
<text text-anchor="middle" x="709.9839" y="-291.2" font-family="Courier,monospace" font-size="11.00" fill="#000000">IntegrationTestTrait</text>
</g>
<!-- \\LinkScanner\\Utility\\LinkScanner -->
<g id="node5" class="node">
<title>\\LinkScanner\\Utility\\LinkScanner</title>
<polygon fill="none" stroke="#000000" points="755.4839,-526 664.4839,-526 664.4839,-490 755.4839,-490 755.4839,-526"/>
<text text-anchor="middle" x="709.9839" y="-505.2" font-family="Courier,monospace" font-size="11.00" fill="#000000">LinkScanner</text>
</g>
<!-- Serializable -->
<g id="node13" class="node">
<title>Serializable</title>
<ellipse fill="none" stroke="#000000" cx="405.4839" cy="-732" rx="51.9908" ry="18"/>
<text text-anchor="middle" x="405.4839" y="-728.3" font-family="Times,serif" font-size="14.00" fill="#c0c0c0">Serializable</text>
</g>
<!-- \\LinkScanner\\Utility\\LinkScanner&#45;&gt;Serializable -->
<g id="edge6" class="edge">
<title>\\LinkScanner\\Utility\\LinkScanner&#45;&gt;Serializable</title>
<path fill="none" stroke="#000000" stroke-dasharray="1,5" d="M664.2737,-524.3242C642.9959,-532.8845 617.8393,-544.4234 596.9839,-558 529.0848,-602.2014 461.8063,-670.4872 427.9764,-706.9813"/>
<polygon fill="none" stroke="#000000" points="425.0796,-704.961 420.8889,-714.6918 430.2331,-709.6982 425.0796,-704.961"/>
</g>
<!-- \\LinkScanner\\Command\\LinkScannerCommand -->
<g id="node6" class="node">
<title>\\LinkScanner\\Command\\LinkScannerCommand</title>
<polygon fill="none" stroke="#000000" points="778.9839,-606 640.9839,-606 640.9839,-570 778.9839,-570 778.9839,-606"/>
<text text-anchor="middle" x="709.9839" y="-585.2" font-family="Courier,monospace" font-size="11.00" fill="#000000">LinkScannerCommand</text>
</g>
<!-- Command -->
<g id="node11" class="node">
<title>Command</title>
<ellipse fill="none" stroke="#000000" cx="405.4839" cy="-792" rx="48.1917" ry="18"/>
<text text-anchor="middle" x="405.4839" y="-788.3" font-family="Times,serif" font-size="14.00" fill="#c0c0c0">Command</text>
</g>
<!-- \\LinkScanner\\Command\\LinkScannerCommand&#45;&gt;Command -->
<g id="edge7" class="edge">
<title>\\LinkScanner\\Command\\LinkScannerCommand&#45;&gt;Command</title>
<path fill="none" stroke="#000000" d="M640.9616,-590.8164C625.2498,-594.1972 609.5153,-600.0696 596.9839,-610 535.8674,-658.4311 586.3471,-721.882 524.9839,-770 507.7936,-783.4797 484.957,-789.6539 463.8549,-792.2272"/>
<polygon fill="none" stroke="#000000" points="463.2818,-788.7663 453.6674,-793.2174 463.9591,-795.7335 463.2818,-788.7663"/>
</g>
<!-- \\LinkScanner\\ScanEntity -->
<g id="node7" class="node">
<title>\\LinkScanner\\ScanEntity</title>
<polygon fill="none" stroke="#000000" points="751.9839,-678 667.9839,-678 667.9839,-642 751.9839,-642 751.9839,-678"/>
<text text-anchor="middle" x="709.9839" y="-657.2" font-family="Courier,monospace" font-size="11.00" fill="#000000">ScanEntity</text>
</g>
<!-- Entity -->
<g id="node10" class="node">
<title>Entity</title>
<ellipse fill="none" stroke="#000000" cx="405.4839" cy="-900" rx="32.4942" ry="18"/>
<text text-anchor="middle" x="405.4839" y="-896.3" font-family="Times,serif" font-size="14.00" fill="#c0c0c0">Entity</text>
</g>
<!-- \\LinkScanner\\ScanEntity&#45;&gt;Entity -->
<g id="edge1" class="edge">
<title>\\LinkScanner\\ScanEntity&#45;&gt;Entity</title>
<path fill="none" stroke="#000000" d="M695.0245,-678.2587C665.4592,-713.4744 596.2143,-791.7324 524.9839,-842 499.0353,-860.312 466.4216,-875.7071 441.8236,-886.0241"/>
<polygon fill="none" stroke="#000000" points="440.4065,-882.8224 432.486,-889.8592 443.066,-889.2975 440.4065,-882.8224"/>
</g>
<!-- \\LinkScanner\\ResultScan -->
<g id="node8" class="node">
<title>\\LinkScanner\\ResultScan</title>
<polygon fill="none" stroke="#000000" points="751.9839,-258 667.9839,-258 667.9839,-222 751.9839,-222 751.9839,-258"/>
<text text-anchor="middle" x="709.9839" y="-237.2" font-family="Courier,monospace" font-size="11.00" fill="#000000">ResultScan</text>
</g>
<!-- Collection -->
<g id="node15" class="node">
<title>Collection</title>
<ellipse fill="none" stroke="#000000" cx="405.4839" cy="-72" rx="47.3916" ry="18"/>
<text text-anchor="middle" x="405.4839" y="-68.3" font-family="Times,serif" font-size="14.00" fill="#000000">Collection</text>
</g>
<!-- \\LinkScanner\\ResultScan&#45;&gt;Collection -->
<g id="edge3" class="edge">
<title>\\LinkScanner\\ResultScan&#45;&gt;Collection</title>
<path fill="none" stroke="#000000" d="M667.8784,-237.587C645.1306,-234.5055 617.5713,-227.729 596.9839,-213 548.2467,-178.1317 573.9351,-133.5672 524.9839,-99 506.9173,-86.2422 483.8114,-79.3939 462.7408,-75.7592"/>
<polygon fill="none" stroke="#000000" points="463.0031,-72.259 452.5915,-74.2212 461.9542,-79.18 463.0031,-72.259"/>
</g>
<!-- \\LinkScanner\\Plugin -->
<g id="node9" class="node">
<title>\\LinkScanner\\Plugin</title>
<polygon fill="none" stroke="#000000" points="738.4839,-204 681.4839,-204 681.4839,-168 738.4839,-168 738.4839,-204"/>
<text text-anchor="middle" x="709.9839" y="-183.2" font-family="Courier,monospace" font-size="11.00" fill="#000000">Plugin</text>
</g>
<!-- BasePlugin -->
<g id="node16" class="node">
<title>BasePlugin</title>
<ellipse fill="none" stroke="#000000" cx="405.4839" cy="-18" rx="50.8918" ry="18"/>
<text text-anchor="middle" x="405.4839" y="-14.3" font-family="Times,serif" font-size="14.00" fill="#000000">BasePlugin</text>
</g>
<!-- \\LinkScanner\\Plugin&#45;&gt;BasePlugin -->
<g id="edge5" class="edge">
<title>\\LinkScanner\\Plugin&#45;&gt;BasePlugin</title>
<path fill="none" stroke="#000000" d="M692.0728,-167.9958C660.9435,-137.7777 593.5955,-77.0269 524.9839,-45 505.8582,-36.0724 483.604,-30.0091 463.5205,-25.9309"/>
<polygon fill="none" stroke="#000000" points="464.0313,-22.4653 453.5526,-24.0296 462.7197,-29.3414 464.0313,-22.4653"/>
</g>
</g>
</svg>
