<?xml version="1.0" encoding="UTF-8" standalone="no"?>
<!DOCTYPE svg PUBLIC "-//W3C//DTD SVG 1.1//EN"
 "http://www.w3.org/Graphics/SVG/1.1/DTD/svg11.dtd">
<!-- Generated by graphviz version 2.40.1 (20161225.0304)
 -->
<!-- Title: G Pages: 1 -->
<svg width="565pt" height="492pt"
 viewBox="0.00 0.00 564.98 492.00" xmlns="http://www.w3.org/2000/svg" xmlns:xlink="http://www.w3.org/1999/xlink">
<g id="graph0" class="graph" transform="scale(1 1) rotate(0) translate(4 488)">
<title>G</title>
<polygon fill="#ffffff" stroke="transparent" points="-4,4 -4,-488 560.9839,-488 560.9839,4 -4,4"/>
<g id="clust1" class="cluster">
<title>cluster_Global</title>
<path fill="none" stroke="#c0c0c0" d="M20,-98C20,-98 536.9839,-98 536.9839,-98 542.9839,-98 548.9839,-104 548.9839,-110 548.9839,-110 548.9839,-464 548.9839,-464 548.9839,-470 542.9839,-476 536.9839,-476 536.9839,-476 20,-476 20,-476 14,-476 8,-470 8,-464 8,-464 8,-110 8,-110 8,-104 14,-98 20,-98"/>
<text text-anchor="middle" x="278.4919" y="-463.2" font-family="Times,serif" font-size="11.00" fill="#c0c0c0">Global</text>
</g>
<g id="clust2" class="cluster">
<title>cluster_\LinkScanner</title>
<path fill="none" stroke="#c0c0c0" d="M281.9839,-106C281.9839,-106 528.9839,-106 528.9839,-106 534.9839,-106 540.9839,-112 540.9839,-118 540.9839,-118 540.9839,-436 540.9839,-436 540.9839,-442 534.9839,-448 528.9839,-448 528.9839,-448 281.9839,-448 281.9839,-448 275.9839,-448 269.9839,-442 269.9839,-436 269.9839,-436 269.9839,-118 269.9839,-118 269.9839,-112 275.9839,-106 281.9839,-106"/>
<text text-anchor="middle" x="405.4839" y="-435.2" font-family="Times,serif" font-size="11.00" fill="#c0c0c0">LinkScanner</text>
</g>
<g id="clust3" class="cluster">
<title>cluster_\LinkScanner\Event</title>
<path fill="none" stroke="#c0c0c0" d="M289.9839,-348C289.9839,-348 520.9839,-348 520.9839,-348 526.9839,-348 532.9839,-354 532.9839,-360 532.9839,-360 532.9839,-408 532.9839,-408 532.9839,-414 526.9839,-420 520.9839,-420 520.9839,-420 289.9839,-420 289.9839,-420 283.9839,-420 277.9839,-414 277.9839,-408 277.9839,-408 277.9839,-360 277.9839,-360 277.9839,-354 283.9839,-348 289.9839,-348"/>
<text text-anchor="middle" x="405.4839" y="-407.2" font-family="Times,serif" font-size="11.00" fill="#c0c0c0">Event</text>
</g>
<g id="clust4" class="cluster">
<title>cluster_\LinkScanner\TestSuite</title>
<path fill="none" stroke="#c0c0c0" d="M333.4839,-268C333.4839,-268 477.4839,-268 477.4839,-268 483.4839,-268 489.4839,-274 489.4839,-280 489.4839,-280 489.4839,-328 489.4839,-328 489.4839,-334 483.4839,-340 477.4839,-340 477.4839,-340 333.4839,-340 333.4839,-340 327.4839,-340 321.4839,-334 321.4839,-328 321.4839,-328 321.4839,-280 321.4839,-280 321.4839,-274 327.4839,-268 333.4839,-268"/>
<text text-anchor="middle" x="405.4839" y="-327.2" font-family="Times,serif" font-size="11.00" fill="#c0c0c0">TestSuite</text>
</g>
<g id="clust5" class="cluster">
<title>cluster_Global\Tools</title>
<path fill="none" stroke="#c0c0c0" d="M94.4948,-299C94.4948,-299 151.489,-299 151.489,-299 157.489,-299 163.489,-305 163.489,-311 163.489,-311 163.489,-359 163.489,-359 163.489,-365 157.489,-371 151.489,-371 151.489,-371 94.4948,-371 94.4948,-371 88.4948,-371 82.4948,-365 82.4948,-359 82.4948,-359 82.4948,-311 82.4948,-311 82.4948,-305 88.4948,-299 94.4948,-299"/>
<text text-anchor="middle" x="122.9919" y="-358.2" font-family="Times,serif" font-size="11.00" fill="#c0c0c0">Tools</text>
</g>
<g id="clust6" class="cluster">
<title>cluster_Global\Cake</title>
<path fill="none" stroke="#c0c0c0" d="M28,-183C28,-183 217.9839,-183 217.9839,-183 223.9839,-183 229.9839,-189 229.9839,-195 229.9839,-195 229.9839,-279 229.9839,-279 229.9839,-285 223.9839,-291 217.9839,-291 217.9839,-291 28,-291 28,-291 22,-291 16,-285 16,-279 16,-279 16,-195 16,-195 16,-189 22,-183 28,-183"/>
<text text-anchor="middle" x="122.9919" y="-278.2" font-family="Times,serif" font-size="11.00" fill="#c0c0c0">Cake</text>
</g>
<g id="clust7" class="cluster">
<title>cluster_Global\Cake\Event</title>
<path fill="none" stroke="#c0c0c0" d="M36,-191C36,-191 209.9839,-191 209.9839,-191 215.9839,-191 221.9839,-197 221.9839,-203 221.9839,-203 221.9839,-251 221.9839,-251 221.9839,-257 215.9839,-263 209.9839,-263 209.9839,-263 36,-263 36,-263 30,-263 24,-257 24,-251 24,-251 24,-203 24,-203 24,-197 30,-191 36,-191"/>
<text text-anchor="middle" x="122.9919" y="-250.2" font-family="Times,serif" font-size="11.00" fill="#c0c0c0">Event</text>
</g>
<!-- \\LinkScanner\\Event\\LinkScannerEventListenerInterface -->
<g id="node1" class="node">
<title>\\LinkScanner\\Event\\LinkScannerEventListenerInterface</title>
<polygon fill="none" stroke="#000000" points="524.9839,-392 285.9839,-392 285.9839,-356 524.9839,-356 524.9839,-392"/>
<text text-anchor="middle" x="405.4839" y="-371.2" font-family="Courier,monospace" font-size="11.00" fill="#000000">LinkScannerEventListenerInterface</text>
</g>
<!-- EventListenerInterface -->
<g id="node7" class="node">
<title>EventListenerInterface</title>
<ellipse fill="none" stroke="#000000" cx="122.9919" cy="-217" rx="90.9839" ry="18"/>
<text text-anchor="middle" x="122.9919" y="-213.3" font-family="Times,serif" font-size="14.00" fill="#c0c0c0">EventListenerInterface</text>
</g>
<!-- \\LinkScanner\\Event\\LinkScannerEventListenerInterface&#45;&gt;EventListenerInterface -->
<g id="edge4" class="edge">
<title>\\LinkScanner\\Event\\LinkScannerEventListenerInterface&#45;&gt;EventListenerInterface</title>
<path fill="none" stroke="#000000" d="M294.3221,-355.9629C285.8013,-352.6254 277.5744,-348.6751 269.9839,-344 246.0471,-329.2572 250.3984,-314.3279 229.9839,-295 208.2705,-274.4425 180.9995,-254.6379 159.4247,-240.1288"/>
<polygon fill="none" stroke="#000000" points="161.1283,-237.0588 150.8609,-234.4451 157.2574,-242.8911 161.1283,-237.0588"/>
</g>
<!-- \\LinkScanner\\TestSuite\\IntegrationTestTrait -->
<g id="node2" class="node">
<title>\\LinkScanner\\TestSuite\\IntegrationTestTrait</title>
<polygon fill="none" stroke="#000000" points="481.4839,-312 329.4839,-312 329.4839,-276 481.4839,-276 481.4839,-312"/>
<text text-anchor="middle" x="405.4839" y="-291.2" font-family="Courier,monospace" font-size="11.00" fill="#000000">IntegrationTestTrait</text>
</g>
<!-- \\LinkScanner\\ScanEntity -->
<g id="node3" class="node">
<title>\\LinkScanner\\ScanEntity</title>
<polygon fill="none" stroke="#000000" points="447.4839,-258 363.4839,-258 363.4839,-222 447.4839,-222 447.4839,-258"/>
<text text-anchor="middle" x="405.4839" y="-237.2" font-family="Courier,monospace" font-size="11.00" fill="#000000">ScanEntity</text>
</g>
<!-- Entity -->
<g id="node6" class="node">
<title>Entity</title>
<ellipse fill="none" stroke="#000000" cx="122.9919" cy="-325" rx="32.4942" ry="18"/>
<text text-anchor="middle" x="122.9919" y="-321.3" font-family="Times,serif" font-size="14.00" fill="#c0c0c0">Entity</text>
</g>
<!-- \\LinkScanner\\ScanEntity&#45;&gt;Entity -->
<g id="edge1" class="edge">
<title>\\LinkScanner\\ScanEntity&#45;&gt;Entity</title>
<path fill="none" stroke="#000000" d="M363.43,-245.0383C336.3966,-248.865 300.7117,-255.0198 269.9839,-264 229.9548,-275.6985 186.0295,-294.8074 156.7176,-308.5217"/>
<polygon fill="none" stroke="#000000" points="154.9064,-305.5066 147.3641,-312.9473 157.9003,-311.8341 154.9064,-305.5066"/>
</g>
<!-- \\LinkScanner\\ResultScan -->
<g id="node4" class="node">
<title>\\LinkScanner\\ResultScan</title>
<polygon fill="none" stroke="#000000" points="447.4839,-204 363.4839,-204 363.4839,-168 447.4839,-168 447.4839,-204"/>
<text text-anchor="middle" x="405.4839" y="-183.2" font-family="Courier,monospace" font-size="11.00" fill="#000000">ResultScan</text>
</g>
<!-- Collection -->
<g id="node8" class="node">
<title>Collection</title>
<ellipse fill="none" stroke="#000000" cx="122.9919" cy="-72" rx="47.3916" ry="18"/>
<text text-anchor="middle" x="122.9919" y="-68.3" font-family="Times,serif" font-size="14.00" fill="#000000">Collection</text>
</g>
<!-- \\LinkScanner\\ResultScan&#45;&gt;Collection -->
<g id="edge2" class="edge">
<title>\\LinkScanner\\ResultScan&#45;&gt;Collection</title>
<path fill="none" stroke="#000000" d="M363.2511,-181.3208C335.9871,-177.3999 300.1144,-170.5326 269.9839,-159 226.8144,-142.4766 181.7193,-113.8203 153.0484,-93.9322"/>
<polygon fill="none" stroke="#000000" points="154.8924,-90.9503 144.6981,-88.0647 150.8679,-96.6777 154.8924,-90.9503"/>
</g>
<!-- \\LinkScanner\\Plugin -->
<g id="node5" class="node">
<title>\\LinkScanner\\Plugin</title>
<polygon fill="none" stroke="#000000" points="433.9839,-150 376.9839,-150 376.9839,-114 433.9839,-114 433.9839,-150"/>
<text text-anchor="middle" x="405.4839" y="-129.2" font-family="Courier,monospace" font-size="11.00" fill="#000000">Plugin</text>
</g>
<!-- BasePlugin -->
<g id="node9" class="node">
<title>BasePlugin</title>
<ellipse fill="none" stroke="#000000" cx="122.9919" cy="-18" rx="50.8918" ry="18"/>
<text text-anchor="middle" x="122.9919" y="-14.3" font-family="Times,serif" font-size="14.00" fill="#000000">BasePlugin</text>
</g>
<!-- \\LinkScanner\\Plugin&#45;&gt;BasePlugin -->
<g id="edge3" class="edge">
<title>\\LinkScanner\\Plugin&#45;&gt;BasePlugin</title>
<path fill="none" stroke="#000000" d="M376.8307,-115.4128C342.7623,-96.2592 283.7385,-64.8482 229.9839,-45 213.083,-38.7596 194.1609,-33.4604 176.9832,-29.2531"/>
<polygon fill="none" stroke="#000000" points="177.6378,-25.8112 167.0994,-26.9032 176.0186,-32.6214 177.6378,-25.8112"/>
</g>
</g>
</svg>
